<svg width="795" height="139" viewBox="0 0 795 139" fill="none" xmlns="http://www.w3.org/2000/svg">
<g clip-path="url(#clip0_803_415)">
<mask id="mask0_803_415" style="mask-type:alpha" maskUnits="userSpaceOnUse" x="-20" y="0" width="181" height="129">
<rect x="-19.3065" y="0.136719" width="179.618" height="128.211" fill="#D9D9D9"/>
</mask>
<g mask="url(#mask0_803_415)">
<path d="M6.05958 115L70.5324 7.32447L135.005 115L70.5324 179.472L6.05958 115Z" fill="#97CDFF"/>
<rect x="6.05957" y="114.998" width="91.1782" height="91.1782" transform="rotate(-45 6.05957 114.998)" fill="#CBF6FF"/>
<path d="M6.05957 114.998L70.5323 92.2035L135.005 114.998L70.5323 179.471L6.05957 114.998Z" fill="#B7A5FF"/>
</g>
<path d="M202.834 93.2383C202.834 100.158 201.308 105.348 198.255 108.808C195.27 112.268 190.69 114.982 184.517 116.95L181.972 109.928C185.093 108.707 187.434 107.384 188.994 105.959C190.555 104.534 191.64 102.804 192.251 100.769C192.861 98.7337 193.167 96.0878 193.167 92.8313V32.8914H202.834V93.2383ZM242.288 48.1562C249.818 48.1562 255.653 50.6664 259.791 55.6869C263.998 60.7073 266.101 67.5256 266.101 76.1417C266.101 81.7049 265.151 86.6236 263.251 90.8977C261.352 95.104 258.604 98.3944 255.008 100.769C251.413 103.076 247.138 104.229 242.186 104.229C234.655 104.229 228.787 101.719 224.58 96.6984C220.374 91.6779 218.271 84.8596 218.271 76.2435C218.271 70.6803 219.221 65.7956 221.12 61.5893C223.02 57.3151 225.768 54.0247 229.363 51.718C232.959 49.3435 237.267 48.1562 242.288 48.1562ZM242.288 55.6869C232.993 55.6869 228.346 62.5391 228.346 76.2435C228.346 89.8801 232.959 96.6984 242.186 96.6984C251.413 96.6984 256.026 89.8461 256.026 76.1417C256.026 62.5051 251.446 55.6869 242.288 55.6869ZM322.07 74.6152C322.07 76.1756 322.002 77.77 321.867 79.3982H287.673C288.08 85.3006 289.573 89.6426 292.151 92.4242C294.729 95.2058 298.053 96.5966 302.124 96.5966C304.702 96.5966 307.077 96.2234 309.248 95.4772C311.419 94.7309 313.691 93.5436 316.066 91.9154L320.137 97.5125C314.438 101.99 308.196 104.229 301.412 104.229C293.949 104.229 288.114 101.787 283.908 96.9019C279.77 92.0171 277.7 85.3006 277.7 76.7523C277.7 71.1891 278.582 66.2705 280.346 61.9963C282.178 57.6543 284.756 54.2621 288.08 51.8198C291.473 49.3774 295.442 48.1562 299.987 48.1562C307.111 48.1562 312.572 50.4968 316.371 55.178C320.171 59.8592 322.07 66.3383 322.07 74.6152ZM312.809 71.8676C312.809 66.5758 311.758 62.5391 309.655 59.7575C307.552 56.9759 304.397 55.5851 300.191 55.5851C292.524 55.5851 288.352 61.2161 287.673 72.4782H312.809V71.8676ZM347.707 104.229C344.247 104.229 341.499 103.211 339.464 101.176C337.497 99.0729 336.513 96.1556 336.513 92.4242V27.8031L345.875 26.6837V92.2207C345.875 93.7132 346.113 94.7987 346.588 95.4772C347.13 96.1556 348.012 96.4948 349.234 96.4948C350.523 96.4948 351.676 96.2913 352.694 95.8842L355.136 102.397C352.897 103.618 350.421 104.229 347.707 104.229ZM456.964 103.008H447.602L445.159 71.3587C444.142 58.9434 443.565 49.4113 443.429 42.7626L428.266 95.0701H419.209L403.232 42.6609C403.232 51.1413 402.791 60.9447 401.909 72.0711L399.569 103.008H390.41L396.21 32.8914H409.236L423.992 83.8759L438.036 32.8914H451.164L456.964 103.008ZM541.834 32.8914L540.816 41.1344H521.379V103.008H511.711V41.1344H491.765V32.8914H541.834ZM588.296 103.008H580.256L579.544 94.663C577.509 97.9874 575.168 100.43 572.522 101.99C569.876 103.483 566.654 104.229 562.854 104.229C558.173 104.229 554.51 102.804 551.864 99.9548C549.218 97.1054 547.895 93.0687 547.895 87.8448V49.3774H557.257V86.8271C557.257 90.4907 557.902 93.1026 559.191 94.663C560.48 96.1556 562.583 96.9019 565.5 96.9019C570.724 96.9019 575.202 93.815 578.933 87.6412V49.3774H588.296V103.008ZM630.939 48.1562C632.838 48.1562 634.602 48.3597 636.231 48.7668L634.501 57.9257C632.872 57.5186 631.312 57.3151 629.819 57.3151C626.495 57.3151 623.815 58.5363 621.78 60.9787C619.745 63.421 618.15 67.2203 616.997 72.3764V103.008H607.634V49.3774H615.674L616.59 60.2663C618.015 56.2635 619.948 53.2445 622.39 51.2092C624.833 49.1739 627.682 48.1562 630.939 48.1562ZM672.128 48.1562C677.012 48.1562 680.812 49.6148 683.525 52.5321C686.307 55.4494 687.698 59.4522 687.698 64.5405V103.008H678.335V65.8634C678.335 62.0642 677.623 59.3843 676.198 57.8239C674.773 56.2635 672.67 55.4833 669.889 55.4833C667.039 55.4833 664.529 56.2974 662.358 57.9257C660.187 59.5539 658.152 61.8945 656.252 64.9475V103.008H646.89V49.3774H654.929L655.743 57.3151C657.643 54.4657 659.984 52.2268 662.765 50.5986C665.615 48.9703 668.735 48.1562 672.128 48.1562ZM747.021 74.6152C747.021 76.1756 746.953 77.77 746.817 79.3982H712.624C713.031 85.3006 714.523 89.6426 717.102 92.4242C719.68 95.2058 723.004 96.5966 727.075 96.5966C729.653 96.5966 732.027 96.2234 734.198 95.4772C736.369 94.7309 738.642 93.5436 741.016 91.9154L745.087 97.5125C739.388 101.99 733.147 104.229 726.362 104.229C718.899 104.229 713.065 101.787 708.859 96.9019C704.72 92.0171 702.651 85.3006 702.651 76.7523C702.651 71.1891 703.533 66.2705 705.297 61.9963C707.129 57.6543 709.707 54.2621 713.031 51.8198C716.423 49.3774 720.392 48.1562 724.937 48.1562C732.061 48.1562 737.522 50.4968 741.322 55.178C745.121 59.8592 747.021 66.3383 747.021 74.6152ZM737.76 71.8676C737.76 66.5758 736.708 62.5391 734.605 59.7575C732.502 56.9759 729.347 55.5851 725.141 55.5851C717.475 55.5851 713.302 61.2161 712.624 72.4782H737.76V71.8676ZM785.276 48.1562C787.176 48.1562 788.94 48.3597 790.568 48.7668L788.838 57.9257C787.21 57.5186 785.65 57.3151 784.157 57.3151C780.833 57.3151 778.153 58.5363 776.118 60.9787C774.082 63.421 772.488 67.2203 771.335 72.3764V103.008H761.972V49.3774H770.012L770.928 60.2663C772.352 56.2635 774.286 53.2445 776.728 51.2092C779.171 49.1739 782.02 48.1562 785.276 48.1562Z" fill="#CBF6FF"/>
</g>
<defs>
<clipPath id="clip0_803_415">
<rect width="794.661" height="137.863" fill="white" transform="translate(0.339355 0.138672)"/>
</clipPath>
</defs>
</svg>
