<svg width="795" height="139" viewBox="0 0 795 139" fill="none" xmlns="http://www.w3.org/2000/svg">
<g clip-path="url(#clip0_803_389)">
<mask id="mask0_803_389" style="mask-type:alpha" maskUnits="userSpaceOnUse" x="-20" y="0" width="180" height="130">
<rect x="-19.6458" y="0.882812" width="179.618" height="128.211" fill="#D9D9D9"/>
</mask>
<g mask="url(#mask0_803_389)">
<path d="M5.72034 115.744L70.1931 8.06861L134.666 115.744L70.1931 180.217L5.72034 115.744Z" fill="#FFCBA5"/>
<rect x="5.72034" y="115.742" width="91.1782" height="91.1782" transform="rotate(-45 5.72034 115.742)" fill="#FFE5A3"/>
<path d="M5.72034 115.742L70.1931 92.9476L134.666 115.742L70.1931 180.215L5.72034 115.742Z" fill="#FFA8A3"/>
</g>
<path d="M202.495 93.9844C202.495 100.904 200.969 106.095 197.916 109.555C194.93 113.015 190.351 115.728 184.177 117.696L181.633 110.674C184.754 109.453 187.095 108.13 188.655 106.705C190.215 105.28 191.301 103.55 191.911 101.515C192.522 99.4798 192.827 96.8339 192.827 93.5774V33.6375H202.495V93.9844ZM241.948 48.9023C249.479 48.9023 255.313 51.4125 259.452 56.4329C263.658 61.4534 265.761 68.2717 265.761 76.8878C265.761 82.451 264.812 87.3697 262.912 91.6438C261.012 95.8501 258.265 99.1405 254.669 101.515C251.073 103.822 246.799 104.975 241.846 104.975C234.316 104.975 228.447 102.465 224.241 97.4444C220.035 92.424 217.932 85.6057 217.932 76.9896C217.932 71.4264 218.881 66.5417 220.781 62.3353C222.681 58.0612 225.428 54.7708 229.024 52.4641C232.62 50.0896 236.928 48.9023 241.948 48.9023ZM241.948 56.4329C232.654 56.4329 228.006 63.2852 228.006 76.9896C228.006 90.6262 232.62 97.4444 241.846 97.4444C251.073 97.4444 255.687 90.5922 255.687 76.8878C255.687 63.2512 251.107 56.4329 241.948 56.4329ZM321.731 75.3613C321.731 76.9217 321.663 78.5161 321.527 80.1443H287.334C287.741 86.0467 289.234 90.3887 291.812 93.1703C294.39 95.9519 297.714 97.3427 301.785 97.3427C304.363 97.3427 306.737 96.9695 308.908 96.2233C311.079 95.477 313.352 94.2897 315.727 92.6615L319.797 98.2586C314.098 102.736 307.857 104.975 301.072 104.975C293.61 104.975 287.775 102.533 283.569 97.648C279.43 92.7632 277.361 86.0467 277.361 77.4984C277.361 71.9352 278.243 67.0166 280.007 62.7424C281.839 58.4004 284.417 55.0082 287.741 52.5659C291.133 50.1235 295.102 48.9023 299.648 48.9023C306.771 48.9023 312.233 51.2429 316.032 55.9241C319.831 60.6053 321.731 67.0844 321.731 75.3613ZM312.47 72.6137C312.47 67.3219 311.419 63.2852 309.315 60.5036C307.212 57.722 304.058 56.3312 299.851 56.3312C292.185 56.3312 288.012 61.9622 287.334 73.2243H312.47V72.6137ZM347.368 104.975C343.908 104.975 341.16 103.957 339.125 101.922C337.157 99.819 336.174 96.9017 336.174 93.1703V28.5492L345.536 27.4298V92.9668C345.536 94.4593 345.773 95.5448 346.248 96.2233C346.791 96.9017 347.673 97.2409 348.894 97.2409C350.183 97.2409 351.337 97.0374 352.354 96.6303L354.797 103.143C352.558 104.364 350.081 104.975 347.368 104.975ZM456.625 103.754H447.263L444.82 72.1048C443.802 59.6894 443.226 50.1574 443.09 43.5087L427.927 95.8162H418.87L402.893 43.407C402.893 51.8874 402.452 61.6908 401.57 72.8172L399.229 103.754H390.07L395.871 33.6375H408.897L423.653 84.622L437.697 33.6375H450.824L456.625 103.754ZM541.494 33.6375L540.477 41.8805H521.039V103.754H511.372V41.8805H491.426V33.6375H541.494ZM587.956 103.754H579.917L579.205 95.4091C577.169 98.7335 574.829 101.176 572.183 102.736C569.537 104.229 566.314 104.975 562.515 104.975C557.834 104.975 554.17 103.55 551.524 100.701C548.879 97.8515 547.556 93.8148 547.556 88.5908V50.1235H556.918V87.5732C556.918 91.2367 557.563 93.8487 558.852 95.4091C560.141 96.9017 562.244 97.648 565.161 97.648C570.385 97.648 574.863 94.5611 578.594 88.3873V50.1235H587.956V103.754ZM630.599 48.9023C632.499 48.9023 634.263 49.1058 635.891 49.5129L634.161 58.6718C632.533 58.2647 630.973 58.0612 629.48 58.0612C626.156 58.0612 623.476 59.2824 621.441 61.7248C619.405 64.1671 617.811 67.9664 616.658 73.1225V103.754H607.295V50.1235H615.335L616.25 61.0124C617.675 57.0096 619.609 53.9906 622.051 51.9553C624.493 49.92 627.343 48.9023 630.599 48.9023ZM671.788 48.9023C676.673 48.9023 680.472 50.3609 683.186 53.2782C685.968 56.1955 687.358 60.1983 687.358 65.2865V103.754H677.996V66.6095C677.996 62.8103 677.284 60.1304 675.859 58.57C674.434 57.0096 672.331 56.2294 669.549 56.2294C666.7 56.2294 664.19 57.0435 662.019 58.6718C659.848 60.3 657.812 62.6406 655.913 65.6936V103.754H646.55V50.1235H654.59L655.404 58.0612C657.304 55.2118 659.644 52.9729 662.426 51.3447C665.275 49.7164 668.396 48.9023 671.788 48.9023ZM746.681 75.3613C746.681 76.9217 746.613 78.5161 746.478 80.1443H712.285C712.692 86.0467 714.184 90.3887 716.762 93.1703C719.34 95.9519 722.665 97.3427 726.735 97.3427C729.313 97.3427 731.688 96.9695 733.859 96.2233C736.03 95.477 738.303 94.2897 740.677 92.6615L744.748 98.2586C739.049 102.736 732.807 104.975 726.023 104.975C718.56 104.975 712.726 102.533 708.519 97.648C704.381 92.7632 702.311 86.0467 702.311 77.4984C702.311 71.9352 703.193 67.0166 704.957 62.7424C706.789 58.4004 709.367 55.0082 712.692 52.5659C716.084 50.1235 720.053 48.9023 724.598 48.9023C731.722 48.9023 737.183 51.2429 740.982 55.9241C744.782 60.6053 746.681 67.0844 746.681 75.3613ZM737.421 72.6137C737.421 67.3219 736.369 63.2852 734.266 60.5036C732.163 57.722 729.008 56.3312 724.802 56.3312C717.135 56.3312 712.963 61.9622 712.285 73.2243H737.421V72.6137ZM784.937 48.9023C786.837 48.9023 788.601 49.1058 790.229 49.5129L788.499 58.6718C786.871 58.2647 785.31 58.0612 783.818 58.0612C780.493 58.0612 777.814 59.2824 775.778 61.7248C773.743 64.1671 772.149 67.9664 770.995 73.1225V103.754H761.633V50.1235H769.672L770.588 61.0124C772.013 57.0096 773.946 53.9906 776.389 51.9553C778.831 49.92 781.681 48.9023 784.937 48.9023Z" fill="#FFA8A3"/>
</g>
<defs>
<clipPath id="clip0_803_389">
<rect width="794.661" height="137.863" fill="white" transform="translate(0 0.882812)"/>
</clipPath>
</defs>
</svg>
